<svg width="51" height="43" viewBox="0 0 51 43" version="1.1" xmlns="http://www.w3.org/2000/svg" xmlns:xlink="http://www.w3.org/1999/xlink">
<g id="Canvas" fill="none">
<g id="Group">
<g id="&#239;&#129;&#149;">
<path d="M 16.2857 13.2857C 16.2857 13.7545 15.8973 14.1429 15.4286 14.1429L 12 14.1429L 12 17.5714C 12 18.0402 11.6116 18.4286 11.1429 18.4286L 9.42857 18.4286C 8.95982 18.4286 8.57143 18.0402 8.57143 17.5714L 8.57143 14.1429L 5.14286 14.1429C 4.67411 14.1429 4.28571 13.7545 4.28571 13.2857L 4.28571 11.5714C 4.28571 11.1027 4.67411 10.7143 5.14286 10.7143L 8.57143 10.7143L 8.57143 7.28571C 8.57143 6.81696 8.95982 6.42857 9.42857 6.42857L 11.1429 6.42857C 11.6116 6.42857 12 6.81696 12 7.28571L 12 10.7143L 15.4286 10.7143C 15.8973 10.7143 16.2857 11.1027 16.2857 11.5714L 16.2857 13.2857ZM 20.5714 12.4286C 20.5714 6.75 15.9643 2.14286 10.2857 2.14286C 4.60714 2.14286 0 6.75 0 12.4286C 0 18.1071 4.60714 22.7143 10.2857 22.7143C 15.9643 22.7143 20.5714 18.1071 20.5714 12.4286Z" transform="translate(29.9308 -2.10071) scale(0.980458)" fill="#3667E3"/>
</g>
<g id="im">
<g id="Group_2">
<g id="Group_3">
<g id="Group_4">
<g id="Vector">
<path d="M 1.09769 0.714019C 1.88523 0.260068 2.79997 -2.37624e-07 3.7753 -2.37624e-07C 6.72276 -2.37624e-07 9.11351 2.37085 9.11351 5.29376C 9.11351 8.21745 6.72276 10.5875 3.7753 10.5875C 2.30112 10.5875 0.966957 9.99459 1.34187e-06 9.0375" stroke-width="2" stroke-miterlimit="10" stroke-linecap="round" transform="translate(34.205 31.6389) scale(0.980458)" stroke="#3667E3"/>
</g>
<g id="Vector_2">
<path d="M 2.60498 5.16658C 4.04367 5.16658 5.20996 4.01 5.20996 2.58329C 5.20996 1.15658 4.04367 0 2.60498 0C 1.16629 0 0 1.15658 0 2.58329C 0 4.01 1.16629 5.16658 2.60498 5.16658Z" transform="translate(35.3501 34.2969) scale(0.980458)" fill="#3667E3"/>
</g>
<g id="Vector_3">
<path d="M 2.75019 9.92425C 1.9531 9.4873 1.25847 8.84219 0.757655 8.01202C -0.755527 5.50361 0.0687853 2.25211 2.59839 0.751524C 5.12865 -0.749448 8.40693 0.0683907 9.91985 2.5768C 10.6768 3.83133 10.8485 5.27105 10.5166 6.58541" stroke-width="2" stroke-miterlimit="10" stroke-linecap="round" transform="translate(16.5682 3.98503) scale(0.980458)" stroke="#3667E3"/>
</g>
<g id="Vector_4">
<path d="M 2.60511 5.16684C 4.04388 5.16684 5.21023 4.01021 5.21023 2.58342C 5.21023 1.15664 4.04388 0 2.60511 0C 1.16635 0 0 1.15664 0 2.58342C 0 4.01021 1.16635 5.16684 2.60511 5.16684Z" transform="translate(19.2491 6.64299) scale(0.980458)" fill="#3667E3"/>
</g>
<g id="Vector_5">
<path d="M 10.4969 6.65523C 10.2638 7.52848 9.8024 8.35372 9.11274 9.03763C 7.02847 11.1044 3.64759 11.1044 1.56345 9.03763C -0.521477 6.97019 -0.520823 3.61798 1.56345 1.5512C 2.60578 0.517411 3.97187 0.00116811 5.33823 1.42575e-07" stroke-width="2" stroke-miterlimit="10" stroke-linecap="round" transform="translate(0.980458 30.5206) scale(0.980458)" stroke="#3667E3"/>
</g>
<g id="Vector_6">
<path d="M 2.60498 5.16658C 4.04367 5.16658 5.20996 4.01 5.20996 2.58329C 5.20996 1.15658 4.04367 0 2.60498 0C 1.16629 0 0 1.15658 0 2.58329C 0 4.01 1.16629 5.16658 2.60498 5.16658Z" transform="translate(3.65757 33.1766) scale(0.980458)" fill="#3667E3"/>
</g>
<g id="Vector_7">
<path d="M 25.3083 5.61523e-06L -2.0767e-07 5.61523e-06" stroke-width="2" stroke-miterlimit="10" stroke-linecap="round" transform="translate(11.2331 36.8285) scale(0.980458)" stroke="#3667E3"/>
</g>
<g id="Vector_8">
<path d="M 13.0542 1.50495e-07L -4.55277e-07 22.515" stroke-width="2" stroke-miterlimit="10" stroke-linecap="round" transform="translate(6.39596 13.6747) scale(0.980458)" stroke="#3667E3"/>
</g>
<g id="Vector_9">
<path d="M 13.7435 23.5441L -7.98732e-08 7.12873e-08" stroke-width="2" stroke-miterlimit="10" stroke-linecap="round" transform="translate(21.8075 9.25499) scale(0.980458)" stroke="#3667E3"/>
</g>
<g id="Vector_10">
<path d="M 2.15658e-07 15.0314L 8.75285 3.00991e-07L 17.5057 15.0314L 2.15658e-07 15.0314Z" stroke-width="2" stroke-miterlimit="10" stroke-linecap="round" transform="translate(13.014 16.9014) scale(0.980458)" stroke="#3667E3"/>
</g>
</g>
</g>
</g>
</g>
</g>
</g>
</svg>

