<svg xmlns="http://www.w3.org/2000/svg" width="80" height="80" fill="none" viewBox="0 0 80 80">
    <path fill="#4BACEB" fill-rule="evenodd" d="M14 40c0 14.36 11.64 26 26 26s26-11.64 26-26-11.64-26-26-26-26 11.64-26 26zM40 8C22.327 8 8 22.327 8 40c0 17.673 14.327 32 32 32 17.673 0 32-14.327 32-32C72 22.327 57.673 8 40 8z" clip-rule="evenodd"/>
    <path fill="#4BACEB" fill-rule="evenodd" d="M20 40a4 4 0 0 1 4-4h32a4 4 0 0 1 0 8H24a4 4 0 0 1-4-4z" clip-rule="evenodd"/>
    <path fill="#4BACEB" fill-rule="evenodd" d="M40 20a4 4 0 0 1 4 4v32a4 4 0 0 1-8 0V24a4 4 0 0 1 4-4z" clip-rule="evenodd"/>
</svg>
