<svg xmlns="http://www.w3.org/2000/svg" width="205" height="260" fill="none" viewBox="0 0 205 260">
    <path fill="#4BACEB" d="M195.105 92h-74.21c-5.465 0-9.895 4.425-9.895 9.882v148.236c0 5.457 4.43 9.882 9.895 9.882h74.21c5.465 0 9.895-4.425 9.895-9.882V101.882c0-5.457-4.43-9.882-9.895-9.882zm-54.421 7.412h34.632a1.236 1.236 0 0 1 0 2.47h-34.632a1.236 1.236 0 1 1 0-2.47zM158 252.588a4.945 4.945 0 0 1-4.947-4.941 4.946 4.946 0 0 1 4.947-4.941 4.946 4.946 0 0 1 4.947 4.941 4.945 4.945 0 0 1-4.947 4.941zm39.579-14.823h-79.158V106.824h79.158v130.941z"/>
    <rect width="30" height="30" x="58" y="26" fill="#4BACEB" rx="3"/>
    <rect width="30" height="30" x="118" y="68" fill="#439AD3" rx="3"/>
    <rect width="17" height="17" x="94" y="63" fill="url(#a)" rx="3"/>
    <rect width="11" height="11" x="56" y="64" fill="#4BACEB" rx="3"/>
    <rect width="11" height="11" x="23" y="21" fill="#4BACEB" rx="3"/>
    <rect width="6" height="6" x="6" fill="#4BACEB" rx="3"/>
    <rect width="6" height="6" x="31" y="109" fill="#4BACEB" rx="3"/>
    <rect width="6" height="6" x="59" y="141" fill="#4BACEB" rx="3"/>
    <rect width="11" height="11" y="17" fill="url(#b)" rx="3"/>
    <rect width="11" height="11" x="22" y="78" fill="#4BACEB" rx="3"/>
    <rect width="32" height="32" x="155" y="109" fill="#4BACEB" rx="3"/>
    <rect width="32" height="32" x="129" y="146" fill="url(#c)" rx="3"/>
    <rect width="32" height="32" x="70" y="148" fill="#4BACEB" rx="3"/>
    <rect width="26" height="26" x="10" y="41" fill="#439AD3" rx="3"/>
    <rect width="26" height="26" x="145" y="191" fill="#439AD3" rx="3"/>
    <rect width="36" height="36" x="100" y="105" fill="#4BACEB" rx="3"/>
    <rect width="36" height="36" x="93" y="191" fill="#439AD3" rx="3"/>
    <rect width="47" height="47" x="45" y="80" fill="#439AD3" rx="3"/>
    <defs>
        <linearGradient id="a" x1="102.5" x2="102.5" y1="63" y2="80" gradientUnits="userSpaceOnUse">
            <stop stop-color="#3F82AF"/>
            <stop offset="1" stop-color="#439AD3"/>
        </linearGradient>
        <linearGradient id="b" x1="5.5" x2="5.5" y1="17" y2="28" gradientUnits="userSpaceOnUse">
            <stop stop-color="#3F82AF"/>
            <stop offset="1" stop-color="#439AD3"/>
        </linearGradient>
        <linearGradient id="c" x1="145" x2="145" y1="146" y2="178" gradientUnits="userSpaceOnUse">
            <stop stop-color="#3F82AF"/>
            <stop offset="1" stop-color="#439AD3"/>
        </linearGradient>
    </defs>
</svg>
