<svg xmlns="http://www.w3.org/2000/svg" width="22" height="26" fill="none" viewBox="0 0 22 26">
    <path fill="#999" d="M3.323 9.97c0-.407-.172-.755-.516-1.104-.343-.29-.687-.464-1.146-.464-.458 0-.802.174-1.145.464C.172 9.215 0 9.563 0 9.97v6.737c0 .465.172.871.516 1.162.343.348.744.464 1.203.464.458 0 .802-.116 1.146-.464.286-.29.458-.697.458-1.162V9.97zm.573 9.118V8.692h14.208v10.396c0 .523-.172.93-.515 1.278-.344.349-.745.465-1.204.465H15.24v3.543c0 .697-.287 1.22-.803 1.452-.572.232-1.088.232-1.604 0-.515-.233-.745-.755-.745-1.452V20.83H9.912v3.543c0 .697-.286 1.161-.802 1.394-.515.29-1.03.29-1.546.058-.573-.233-.803-.755-.803-1.452V20.83H5.615c-.459 0-.86-.116-1.204-.465a1.72 1.72 0 0 1-.515-1.277zM18.104 8.111c0-1.161-.344-2.265-.974-3.31-.687-1.046-1.547-1.859-2.635-2.44L15.583.33c.058-.117 0-.233-.114-.29-.115-.059-.23-.059-.23.057L14.095 2.13A7.974 7.974 0 0 0 11 1.49c-1.089 0-2.12.232-3.094.639L6.76.096C6.703-.02 6.59-.02 6.474.038c-.115.058-.172.174-.057.29l1.088 2.033C6.36 2.942 5.5 3.755 4.813 4.801c-.688 1.045-.974 2.149-.974 3.31h14.265zm-9.74-3.194a.53.53 0 0 1-.171.406.646.646 0 0 1-.459.175.517.517 0 0 1-.4-.175.53.53 0 0 1-.173-.406c0-.116.058-.29.172-.407.115-.116.23-.232.401-.232.172 0 .344.116.459.232.114.116.172.29.172.407zm6.474 0a.53.53 0 0 1-.171.406.615.615 0 0 1-.401.175.646.646 0 0 1-.459-.175.53.53 0 0 1-.172-.406c0-.116.058-.29.172-.407.115-.116.287-.232.459-.232.114 0 .286.116.4.232.115.116.172.29.172.407zm5.443 3.485c.459 0 .86.174 1.203.464.344.349.516.697.516 1.104v6.737c0 .465-.172.871-.516 1.162-.343.348-.744.464-1.203.464-.458 0-.802-.116-1.146-.464-.343-.29-.458-.697-.458-1.162v-6.68c0-.464.115-.812.458-1.16.344-.291.688-.465 1.146-.465z"/>
</svg>
