<svg xmlns="http://www.w3.org/2000/svg" width="10" height="12" fill="none" viewBox="0 0 10 12">
    <path fill="none" d="M0 0h10v12H0z"/>
    <rect width="10" height="12" fill="#F2F2F2" rx="1"/>
    <path fill="none" d="M.833.857h8.333v10.117H.833z"/>
    <path fill="#AAC148" d="M7.597 4.23H2.54a.205.205 0 0 0-.204.206v4.283c0 .114.091.206.204.206h.901v1.443c0 .335.269.607.6.607.332 0 .601-.272.601-.607V8.925h.84v1.443c0 .335.269.607.6.607.332 0 .6-.272.6-.607V8.925h.915a.205.205 0 0 0 .203-.206V4.436a.205.205 0 0 0-.203-.206zM1.448 4.23c-.34 0-.615.27-.615.603V7.28c0 .333.275.602.615.602.34 0 .615-.27.615-.602V4.833a.609.609 0 0 0-.615-.603zM8.552 4.23c-.34 0-.615.27-.615.603V7.28c0 .333.275.602.615.602.34 0 .615-.27.615-.602V4.833a.609.609 0 0 0-.615-.603z"/>
    <path fill="#AAC148" fill-rule="evenodd" d="M2.538 3.949h4.923c.129 0 .225-.123.198-.254a2.826 2.826 0 0 0-1.327-1.882l.42-.791a.113.113 0 0 0-.04-.15.104.104 0 0 0-.146.043l-.423.796a2.623 2.623 0 0 0-2.286 0L3.433.915A.104.104 0 0 0 3.29.87a.114.114 0 0 0-.042.151l.421.79A2.828 2.828 0 0 0 2.34 3.696c-.026.13.07.254.198.254zM6.47 2.77a.234.234 0 0 1-.229.238.234.234 0 0 1-.229-.238c0-.131.103-.238.23-.238.126 0 .228.107.228.238zm-2.48 0a.234.234 0 0 0-.23-.238.234.234 0 0 0-.228.238c0 .132.102.238.229.238a.234.234 0 0 0 .229-.238z" clip-rule="evenodd"/>
</svg>
