<svg xmlns="http://www.w3.org/2000/svg" width="45" height="45" fill="none" viewBox="0 0 45 45">
    <rect width="45" height="45" fill="#F2F2F2" rx="22.5"/>
    <path fill="#47C588" d="M14.823 19.47c0-.407-.172-.755-.516-1.104-.344-.29-.687-.464-1.146-.464-.458 0-.802.174-1.145.464-.344.349-.516.697-.516 1.104v6.737c0 .465.172.871.516 1.162.343.348.744.464 1.203.464.458 0 .802-.116 1.146-.464.286-.29.458-.697.458-1.162V19.47zm.573 9.119V18.191h14.208v10.396c0 .523-.172.93-.515 1.278-.344.349-.745.465-1.204.465H26.74v3.543c0 .697-.287 1.22-.802 1.452-.573.232-1.089.232-1.605 0-.515-.233-.744-.755-.744-1.452V30.33h-2.177v3.543c0 .697-.287 1.161-.803 1.394-.515.29-1.03.29-1.547.058-.572-.233-.802-.755-.802-1.452V30.33h-1.145c-.459 0-.86-.116-1.203-.465a1.72 1.72 0 0 1-.516-1.277zM29.604 17.61c0-1.161-.344-2.265-.974-3.31-.687-1.046-1.547-1.859-2.635-2.44l1.088-2.032c.058-.117 0-.233-.114-.29-.115-.059-.23-.059-.23.057l-1.145 2.033a7.975 7.975 0 0 0-3.094-.639c-1.088 0-2.12.232-3.094.639L18.26 9.596c-.057-.116-.172-.116-.286-.058-.115.058-.172.174-.057.29l1.088 2.033c-1.146.581-2.005 1.394-2.692 2.44-.688 1.045-.974 2.149-.974 3.31h14.265zm-9.74-3.194a.53.53 0 0 1-.171.406.645.645 0 0 1-.459.175.517.517 0 0 1-.4-.175.53.53 0 0 1-.172-.406c0-.116.057-.29.171-.407.115-.116.23-.232.401-.232.172 0 .344.116.459.232.114.117.172.29.172.407zm6.474 0a.53.53 0 0 1-.171.406.615.615 0 0 1-.401.175.645.645 0 0 1-.459-.175.53.53 0 0 1-.172-.406c0-.116.058-.29.172-.407.115-.116.287-.232.459-.232.114 0 .286.116.4.232.115.117.172.29.172.407zm5.443 3.485c.459 0 .86.174 1.203.464.344.349.516.697.516 1.104v6.737c0 .465-.172.871-.516 1.162-.343.348-.744.464-1.203.464-.458 0-.802-.116-1.146-.464-.343-.29-.458-.697-.458-1.162v-6.68c0-.464.115-.812.458-1.16.344-.291.688-.465 1.146-.465z"/>
</svg>
