<svg xmlns="http://www.w3.org/2000/svg" width="12" height="12" fill="none" viewBox="0 0 12 12">
    <path fill="#C4C4C4" d="M0 2a2 2 0 0 1 2-2h8a2 2 0 0 1 2 2v8a2 2 0 0 1-2 2H2a2 2 0 0 1-2-2V2z"/>
    <path fill="#fff" d="M8.011 6.22c-.009-.887.762-1.312.796-1.334-.433-.601-1.108-.684-1.348-.693-.573-.055-1.12.321-1.41.321-.29 0-.74-.313-1.216-.305a1.818 1.818 0 0 0-1.525.878c-.65 1.07-.166 2.658.467 3.527.31.425.68.903 1.164.886.466-.018.642-.287 1.207-.287.564 0 .723.287 1.216.278.502-.009.82-.433 1.128-.86.355-.493.501-.971.51-.995-.01-.005-.979-.357-.989-1.416zM7.084 3.618c.256-.297.43-.708.383-1.118-.37.014-.82.234-1.085.53-.239.263-.447.68-.391 1.083.413.03.835-.2 1.093-.495z"/>
</svg>
