<svg xmlns="http://www.w3.org/2000/svg" width="12" height="13" fill="none" viewBox="0 0 12 13">
    <path fill="none" d="M0 12h12V0H0z"/>
    <path fill="none" d="M0 12h12V0H0z"/>
    <path fill="#757575" d="M4.273 5.989a1.6 1.6 0 1 1 3.198 0 1.6 1.6 0 0 1-3.198 0zM5.873 8.494c.812 0 1.433-.276 1.891-.875l.09.008 3.896.076A6 6 0 0 1 6 12c-.88 0-1.714-.194-2.468-.535l1-3.367c.388.248.846.396 1.34.396z"/>
    <path fill="#757575" d="M11.915 6.958l-3.709-.07c.108-.28.173-.581.173-.9a2.506 2.506 0 0 0-2.507-2.505c-.042 0-.031.006-.073.007l-.015-.023L3.45.575A5.96 5.96 0 0 1 6 0a6 6 0 0 1 6 6c0 .328-.034.646-.085.958zM3.367 5.989c0 .61.18 1.147.542 1.582l-1.05 3.534A5.99 5.99 0 0 1 0 6 5.99 5.99 0 0 1 2.784.94l2.192 2.715a2.498 2.498 0 0 0-1.61 2.333z"/>
</svg>
