<?xml version="1.0" encoding="UTF-8"?>
<svg width="43px" height="34px" viewBox="0 0 43 34" version="1.1" xmlns="http://www.w3.org/2000/svg" xmlns:xlink="http://www.w3.org/1999/xlink">
    <!-- Generator: Sketch 52.5 (67469) - http://www.bohemiancoding.com/sketch -->
    <title>ProdIcons-Control Group</title>
    <desc>Created with Sketch.</desc>
    <g id="Page-1" stroke="none" stroke-width="1" fill="none" fill-rule="evenodd">
        <g id="ProdIcons-Control-Group" transform="translate(-3.000000, -9.000000)">
            <rect id="Rectangle" x="0" y="0" width="48" height="48"></rect>
            <circle id="Oval" fill="#4BACEB" cx="11" cy="19.6666667" r="4.66666667"></circle>
            <path d="M8.33333333,26.1666667 C5.66395704,26.1666667 3.5,28.3306237 3.5,31 L3.5,34.3333333 C3.5,35.1617605 4.17157288,35.8333333 5,35.8333333 L17,35.8333333 C17.8284271,35.8333333 18.5,35.1617605 18.5,34.3333333 L18.5,31 C18.5,28.3306237 16.336043,26.1666667 13.6666667,26.1666667 L8.33333333,26.1666667 Z" id="Rectangle" stroke="#4BACEB" fill="#4BACEB"></path>
            <circle id="Oval" fill="#4BACEB" cx="38" cy="19.6666667" r="4.66666667"></circle>
            <path d="M35.3333333,25.6666667 L40.6666667,25.6666667 C43.6121853,25.6666667 46,28.0544813 46,31 L46,34.3333333 C46,35.4379028 45.1045695,36.3333333 44,36.3333333 L32,36.3333333 C30.8954305,36.3333333 30,35.4379028 30,34.3333333 L30,31 C30,28.0544813 32.3878147,25.6666667 35.3333333,25.6666667 Z" id="Rectangle" fill="#4BACEB"></path>
            <circle id="Oval" fill="#EDF6FD" cx="24" cy="17" r="7"></circle>
            <path d="M20,26 L28,26 C32.418278,26 36,29.581722 36,34 L36,40 C36,41.1045695 35.1045695,42 34,42 L14,42 C12.8954305,42 12,41.1045695 12,40 L12,34 C12,29.581722 15.581722,26 20,26 Z" id="Rectangle" fill="#EDF6FD"></path>
            <path d="M24,24.5 C19.8578644,24.5 16.5,21.1421356 16.5,17 C16.5,12.8578644 19.8578644,9.5 24,9.5 C28.1421356,9.5 31.5,12.8578644 31.5,17 C31.5,21.1421356 28.1421356,24.5 24,24.5 Z M24,23.5 C27.5898509,23.5 30.5,20.5898509 30.5,17 C30.5,13.4101491 27.5898509,10.5 24,10.5 C20.4101491,10.5 17.5,13.4101491 17.5,17 C17.5,20.5898509 20.4101491,23.5 24,23.5 Z" id="Oval" fill="#4BACEB" fill-rule="nonzero"></path>
            <path d="M20,26.5 C15.8578644,26.5 12.5,29.8578644 12.5,34 L12.5,40 C12.5,40.8284271 13.1715729,41.5 14,41.5 L34,41.5 C34.8284271,41.5 35.5,40.8284271 35.5,40 L35.5,34 C35.5,29.8578644 32.1421356,26.5 28,26.5 L20,26.5 Z M20,25.5 L28,25.5 C32.6944204,25.5 36.5,29.3055796 36.5,34 L36.5,40 C36.5,41.3807119 35.3807119,42.5 34,42.5 L14,42.5 C12.6192881,42.5 11.5,41.3807119 11.5,40 L11.5,34 C11.5,29.3055796 15.3055796,25.5 20,25.5 Z" id="Rectangle" fill="#4BACEB" fill-rule="nonzero"></path>
        </g>
    </g>
</svg>