<svg xmlns="http://www.w3.org/2000/svg" width="49" height="45" fill="none" viewBox="0 0 49 45">
    <path fill="#000" fill-opacity="0" d="M-17.219-20.17h84.617v84.617h-84.617z"/>
    <path fill="#000" fill-opacity="0" d="M-17.219-20.17h84.617v84.617h-84.617z"/>
    <path fill="#000" fill-opacity="0" d="M.492.492h48.507v43.902H.492z"/>
    <path fill="#000" fill-opacity="0" d="M4.624.492h15.339V37.94H4.623z"/>
    <mask id="a" width="16" height="38" x="4" y="0" maskUnits="userSpaceOnUse">
        <path fill="#fff" fill-rule="evenodd" d="M19.963 12.614h-5.205V8.678c0-1.407.836-1.79 1.437-1.79h3.68V.511l-5.117-.02c-5.628 0-6.887 4.782-6.887 7.871v4.28H4.624v6.602H7.87V37.94h6.887V19.245h4.624l.58-6.631z" clip-rule="evenodd"/>
    </mask>
    <g mask="url(#a)">
        <path fill="#EDF6FD" fill-rule="evenodd" d="M-.296 42.86h25.178V-4.429H-.296V42.86z" clip-rule="evenodd"/>
    </g>
    <path fill="#000" fill-opacity="0" d="M.492.492H42.91v43.902H.492z"/>
    <path stroke="#4BACEB" stroke-linecap="round" stroke-linejoin="round" d="M4.624 21.46v20.928h8.707V21.46M13.332 21.46h5.904l.757-7.4h-6.66V9.711a1.77 1.77 0 0 1 1.839-1.968h4.683V.521L13.411.492c-7.153 0-8.787 5.352-8.787 8.777v4.791H.492v7.4h4.132"/>
    <path fill-rule="evenodd" stroke="#4BACEB" d="M39.623 39.712c-.807-.276-2.115-.364-2.696-.58a3.72 3.72 0 0 1-1.24-.581 7.557 7.557 0 0 1-.206-1.968c.297-.28.537-.614.708-.984.174-.644.29-1.303.345-1.968a.327.327 0 0 0 .108 0c.157 0 .423-.098.55-.758.158-.816.463-1.24.385-1.83-.06-.403-.227-.472-.335-.472a.148.148 0 0 0-.079 0 5.4 5.4 0 0 0 .404-2.657 4.28 4.28 0 0 0-4.634-4.191 4.27 4.27 0 0 0-4.625 4.191 5.44 5.44 0 0 0 .404 2.657.217.217 0 0 0-.089 0c-.108 0-.276.069-.325.472-.078.59.217.984.374 1.83.158.846.404.758.561.758a.328.328 0 0 0 .108 0c.05.666.166 1.325.345 1.968.171.37.412.704.708.984a7.557 7.557 0 0 1-.207 1.968c-.38.264-.802.46-1.25.58-.57.217-1.878.305-2.685.58a4.84 4.84 0 0 0-3.287 4.684H42.91a4.84 4.84 0 0 0-3.287-4.683z" clip-rule="evenodd"/>
    <path fill="#EDF6FD" fill-rule="evenodd" d="M24.912 38.796a4.8 4.8 0 0 1 1.76-.423s.276-.443-.619-.61a6.363 6.363 0 0 1-1.377-.472 3.263 3.263 0 0 1 0-1.132 4.92 4.92 0 0 0 2.39-.659c-1.111-1.663-.511-3.601-.747-5.421a3.07 3.07 0 0 0-3.375-2.952h-.118a3.03 3.03 0 0 0-3.277 2.952c-.226 1.81.433 3.935-.708 5.43a4.614 4.614 0 0 0 2.4.591c.042.398.02.8-.068 1.19a1.82 1.82 0 0 1-.856.394c-.628.15-1.245.337-1.85.561a3.12 3.12 0 0 0-1.614 2.667h5.776a5.097 5.097 0 0 1 2.283-2.116zM43.293 40.95H49a3.149 3.149 0 0 0-1.614-2.676 16.299 16.299 0 0 0-1.85-.551 1.968 1.968 0 0 1-.855-.394 3.702 3.702 0 0 1-.07-1.19c.84.03 1.672-.174 2.402-.59-1.132-1.457-.483-3.612-.709-5.432a3.03 3.03 0 0 0-3.276-2.952h-.07a3.08 3.08 0 0 0-3.384 2.952c-.226 1.81.364 3.759-.748 5.421a4.92 4.92 0 0 0 2.391.66s.089.984 0 1.121c-.437.217-.9.379-1.377.482-.896.158-.62.6-.62.6a4.999 4.999 0 0 1 1.761.394 5.068 5.068 0 0 1 2.312 2.155z" clip-rule="evenodd"/>
</svg>
