<svg xmlns="http://www.w3.org/2000/svg" width="22" height="26" fill="none" viewBox="0 0 22 26">
    <path fill="#999" d="M18.43 13.752a3.83 3.83 0 0 0 .41 2.089c.527 1.45 1.58 2.553 3.16 3.25-.468 1.508-1.229 2.9-2.165 4.235-1.287 1.74-2.574 2.67-3.803 2.67-.585 0-1.287-.175-2.107-.523-.936-.348-1.755-.522-2.398-.522-.702 0-1.522.232-2.516.58-.82.348-1.463.464-1.873.464-.877.058-1.814-.406-2.75-1.392-.76-.697-1.521-1.741-2.223-3.018-.585-1.044-1.053-1.973-1.346-2.843a13.723 13.723 0 0 1-.819-4.7c0-1.625.293-3.075.995-4.294.585-1.102 1.404-1.973 2.457-2.553a7.335 7.335 0 0 1 3.277-.928c.585 0 1.58.232 2.867.696.819.348 1.345.464 1.58.464.234 0 .702-.116 1.462-.406.702-.232 1.287-.464 1.756-.58a8.4 8.4 0 0 1 1.989-.232c2.223.232 3.862 1.102 4.973 2.61-1.989 1.161-2.984 2.844-2.925 4.933zm-3.334-9.574v.058c-1.287 1.45-2.633 2.089-4.037 1.973-.176-1.509.292-2.902 1.462-4.178.468-.522 1.053-.987 1.814-1.393C15.037.29 15.798.058 16.5 0c.117 1.567-.351 2.96-1.404 4.178z"/>
</svg>
