<svg xmlns="http://www.w3.org/2000/svg" width="55" height="50" fill="none" viewBox="0 0 55 50">
    <path fill="#000" fill-opacity="0" d="M-15.32-17.296h84.998v84.997H-15.32z"/>
    <path fill="#000" fill-opacity="0" d="M-15.32-17.296h84.998v84.997H-15.32z"/>
    <path fill="#000" fill-opacity="0" d="M.494.494h53.963v49.012H.494z"/>
    <path fill="#EDF6FD" d="M7.335 24.997a6.049 6.049 0 0 1 6.01-6.049h29.65a6.058 6.058 0 0 1 6.058 6.049"/>
    <path stroke="#4BACEB" d="M7.335 24.997a6.049 6.049 0 0 1 6.01-6.049h29.65a6.058 6.058 0 0 1 6.058 6.049"/>
    <path fill="#EDF6FD" d="M7.335 12.847a6.049 6.049 0 0 1 6.01-6.01h29.65a6.059 6.059 0 0 1 6.098 6.01"/>
    <path stroke="#4BACEB" d="M7.335 12.847a6.049 6.049 0 0 1 6.01-6.01h29.65a6.059 6.059 0 0 1 6.098 6.01"/>
    <path fill="#EDF6FD" d="M48.596 37.101a6.068 6.068 0 0 1-6.099 6.059h-29.65A6.059 6.059 0 0 1 6.8 37.1"/>
    <path stroke="#4BACEB" d="M48.596 37.101a6.068 6.068 0 0 1-6.099 6.059h-29.65A6.059 6.059 0 0 1 6.8 37.1"/>
    <path fill="#fff" stroke="#4BACEB" d="M7.333 13.184a6.345 6.345 0 1 0 0-12.69 6.345 6.345 0 0 0 0 12.69zM48.114 25.292a6.345 6.345 0 1 0 0-12.69 6.345 6.345 0 0 0 0 12.69zM48.114 49.506a6.345 6.345 0 1 0 0-12.69 6.345 6.345 0 0 0 0 12.69zM6.84 37.399a6.345 6.345 0 1 0 0-12.69 6.345 6.345 0 0 0 0 12.69z"/>
</svg>
