<svg xmlns="http://www.w3.org/2000/svg" xmlns:xlink="http://www.w3.org/1999/xlink" width="24" height="29" viewBox="0 0 24 29">
    <defs>
        <linearGradient id="b" x1="50%" x2="50%" y1="4.231%" y2="100%">
            <stop offset="0%" stop-color="#438AE1"/>
            <stop offset="100%" stop-color="#ACCBF0"/>
        </linearGradient>
        <circle id="a" cx="12" cy="12" r="12"/>
        <linearGradient id="c" x1="50%" x2="50%" y1="0%" y2="100%">
            <stop offset="0%" stop-color="#FFF" stop-opacity="0"/>
            <stop offset="100%" stop-color="#FFF"/>
        </linearGradient>
        <linearGradient id="e" x1="77.191%" x2="23.597%" y1="16.569%" y2="50%">
            <stop offset="0%" stop-color="#F99074"/>
            <stop offset="100%" stop-color="#F96D47"/>
        </linearGradient>
        <linearGradient id="g" x1="61.924%" x2="19.481%" y1="18.983%" y2="93.485%">
            <stop offset="0%" stop-color="#FC8B6C"/>
            <stop offset="100%" stop-color="#F96D47"/>
        </linearGradient>
        <path id="f" d="M9.07.072c-1.422 1.758-4.246 5.605 0 10.68 1.23 1.47 6.67 5.93 2.494 12.898C6.508 23.65 0 19.373 0 11.606S6.463.472 9.07.072z"/>
        <linearGradient id="h" x1="50%" x2="50%" y1="4.159%" y2="100%">
            <stop offset="0%" stop-color="#FFF" stop-opacity="0"/>
            <stop offset="100%" stop-color="#FFF"/>
        </linearGradient>
    </defs>
    <g fill="none" fill-rule="evenodd">
        <g transform="translate(0 4.204)">
            <mask id="d" fill="#fff">
                <use xlink:href="#a"/>
            </mask>
            <use fill="url(#b)" xlink:href="#a"/>
            <path fill="url(#c)" d="M11.554 23.993c3.769-1.799 5.992-4.237 6.669-7.315.683-3.11 1.926-3.733 3.758-4.285.928-.28 2.792-.441 5.812-2.2.637-.37 1.732-1.285 3.286-2.746l-7.328 13.25-6.555 3.472-5.642-.176z" mask="url(#d)" opacity=".275"/>
        </g>
        <path fill="#FFF" d="M21.723 11.099c-.162.642-.828 1.217-1.996 1.726-1.752.763-3.621-.104-5.012 1.382-1.39 1.486 2.987 7.207-3.248 13.997-1.945-2.23-3.444-8.8-3.73-12.18-.19-2.252.542-3.894 2.196-4.925l2.275-1.114c2.074.25 3.702.498 4.885.744 1.183.246 2.727.37 4.63.37z"/>
        <path fill="url(#e)" d="M8.186 16.292c.787-3.236 2.338-4.978 4.653-5.228 3.472-.375 5.232.736 6.585.736.902 0 1.727-.245 2.474-.736-2.76-.784-4.244-1.518-4.455-2.202-.315-1.027-1.175-2.84-2.143-3.588-.968-.746-1.885-1.245-3.248-1.245-1.363 0-5.466.902-6.144 4.177-.453 2.183.307 4.879 2.278 8.086z"/>
        <path fill="#FFF" d="M7.883 5.956c1.8-2.07 3.132-3.06 4-2.972.867.088 1.285.48 1.254 1.175-.375-.138-.974-.138-1.798 0-.823.139-1.975.738-3.456 1.797zM20.824 10.734c.215.317.343.55.385.7.041.15.055.306.042.469.431-.264.647-.555.647-.874 0-.101-.358-.2-1.074-.295z"/>
        <g transform="translate(0 4.555)">
            <mask id="i" fill="#fff">
                <use xlink:href="#f"/>
            </mask>
            <use fill="url(#g)" xlink:href="#f"/>
            <path fill="url(#h)" d="M2.07 1.384C.87 4.122-.453 10.497 3.536 14.023c3.988 3.526 10.052 6.276 8.167 9.725-1.885 3.45-12.465-2.12-14.124-6.809-1.66-4.688.687-13.146 4.491-15.555z" mask="url(#i)" opacity=".332"/>
        </g>
        <path fill="#F96D47" d="M7.247 7.589c.527-.941 1.768-5.133 4.29-6.99 1.682-1.238 2.356.01 2.023 3.743-.504-.184-1.178-.184-2.023 0-1.267.275-3.331 1.975-4.29 3.247z"/>
    </g>
</svg>
