<svg xmlns="http://www.w3.org/2000/svg" width="48" height="48" viewBox="0 0 48 48">
    <g fill="none" fill-rule="evenodd">
        <path fill="#EDF6FD" stroke="#4BACEB" d="M5.564 12.5c-.737 0-1.017.054-1.305.208a1.317 1.317 0 0 0-.551.551c-.154.288-.208.568-.208 1.305v18.872c0 .737.054 1.017.208 1.305.128.239.312.423.551.551.288.154.568.208 1.305.208h36.872c.737 0 1.017-.054 1.305-.208.239-.128.423-.312.551-.551.154-.288.208-.568.208-1.305V14.564c0-.737-.054-1.017-.208-1.305a1.317 1.317 0 0 0-.551-.551c-.288-.154-.568-.208-1.305-.208H5.564z"/>
        <path fill="#FFF" stroke="#4BACEB" d="M40.718 22.5H7.282c-.331 0-.432.02-.535.074a.409.409 0 0 0-.173.173c-.055.103-.074.204-.074.535v1.436c0 .331.02.432.074.535.041.075.098.132.173.173.103.055.204.074.535.074h33.436c.331 0 .432-.02.535-.074a.409.409 0 0 0 .173-.173c.055-.103.074-.204.074-.535v-1.436c0-.331-.02-.432-.074-.535a.409.409 0 0 0-.173-.173c-.103-.055-.204-.074-.535-.074z"/>
        <path stroke="#4BACEB" stroke-linecap="round" stroke-linejoin="round" d="M32 21l2.154 2L40 19"/>
        <path fill="#4BACEB" d="M4.282 12h39.436c.446 0 .607.046.77.134.163.087.291.215.378.378.088.163.134.324.134.77V14H3v-.718c0-.446.046-.607.134-.77a.909.909 0 0 1 .378-.378c.163-.088.324-.134.77-.134z"/>
    </g>
</svg>
