<svg xmlns="http://www.w3.org/2000/svg" width="48" height="48" viewBox="0 0 48 48">
    <g fill="none" fill-rule="evenodd">
        <path d="M0 0h48v48H0z"/>
        <path fill="#EDF6FD" stroke="#4BACEB" d="M14.564 3.5c-.737 0-1.017.054-1.305.208a1.317 1.317 0 0 0-.551.551c-.154.288-.208.568-.208 1.305v36.872c0 .737.054 1.017.208 1.305.128.239.312.423.551.551.288.154.568.208 1.305.208h18.872c.737 0 1.017-.054 1.305-.208.239-.128.423-.312.551-.551.154-.288.208-.568.208-1.305V5.564c0-.737-.054-1.017-.208-1.305a1.317 1.317 0 0 0-.551-.551c-.288-.154-.568-.208-1.305-.208H14.564z"/>
        <path fill="#4BACEB" d="M34 45H14a2 2 0 0 1-2-2h24a2 2 0 0 1-2 2zM26 5h-4a2 2 0 0 1-2-2h8a2 2 0 0 1-2 2z"/>
        <path fill="#FFF" stroke="#4BACEB" d="M16.282 9.5c-.331 0-.432.02-.535.074a.409.409 0 0 0-.173.173c-.055.103-.074.204-.074.535v5.436c0 .331.02.432.074.535.041.075.098.132.173.173.103.055.204.074.535.074h5.436c.331 0 .432-.02.535-.074a.409.409 0 0 0 .173-.173c.055-.103.074-.204.074-.535v-5.436c0-.331-.02-.432-.074-.535a.409.409 0 0 0-.173-.173c-.103-.055-.204-.074-.535-.074h-5.436zM29 9.5a3.5 3.5 0 1 0 0 7 3.5 3.5 0 0 0 0-7zM26.282 19.5c-.331 0-.432.02-.535.074a.409.409 0 0 0-.173.173c-.055.103-.074.204-.074.535v5.436c0 .331.02.432.074.535.041.075.098.132.173.173.103.055.204.074.535.074h5.436c.331 0 .432-.02.535-.074a.409.409 0 0 0 .173-.173c.055-.103.074-.204.074-.535v-5.436c0-.331-.02-.432-.074-.535a.409.409 0 0 0-.173-.173c-.103-.055-.204-.074-.535-.074h-5.436zM19 19l3.804 2.764-1.453 4.472H16.65l-1.453-4.472z"/>
    </g>
</svg>
