<svg xmlns="http://www.w3.org/2000/svg" width="48" height="48" viewBox="0 0 48 48">
    <g fill="none" fill-rule="evenodd">
        <path d="M0 0h48v48H0z"/>
        <g stroke="#4BACEB">
            <path fill="#EDF6FD" d="M41.5 16.247L29.819 6.5H8.564c-.737 0-1.017.054-1.305.208a1.317 1.317 0 0 0-.551.551c-.154.288-.208.568-.208 1.305v30.872c0 .737.054 1.017.208 1.305.128.239.312.423.551.551.288.154.568.208 1.305.208h30.872c.737 0 1.017-.054 1.305-.208.239-.128.423-.312.551-.551.154-.288.208-.568.208-1.305V16.247z"/>
            <g stroke-linecap="round" stroke-linejoin="round">
                <path d="M19 25l5-6M29 25l-5-6M24 31.81V19M20 17h8"/>
            </g>
            <path fill="#FFF" d="M30.336 7.236l1.582 8.572 9.266.176-10.848-8.748zM41.5 16.24V16h.5l-.314.39-.186-.15z"/>
        </g>
    </g>
</svg>
