<svg xmlns="http://www.w3.org/2000/svg" width="48" height="48" viewBox="0 0 48 48">
    <g fill="none" fill-rule="evenodd">
        <path d="M0 0h48v48H0z"/>
        <g transform="translate(3 6)">
            <circle cx="21" cy="3" r="2.5" fill="#FFF" stroke="#4BACEB"/>
            <path fill="#EDF6FD" stroke="#4BACEB" d="M27.5 6.5v6H14.54v-6H2.565c-.737 0-1.017.054-1.305.208a1.317 1.317 0 0 0-.551.551C.554 7.547.5 7.827.5 8.564v18.872c0 .737.054 1.017.208 1.305.128.239.312.423.551.551.288.154.568.208 1.305.208h36.872c.737 0 1.017-.054 1.305-.208.239-.128.423-.312.551-.551.154-.288.208-.568.208-1.305V8.564c0-.737-.054-1.017-.208-1.305a1.317 1.317 0 0 0-.551-.551c-.288-.154-.568-.208-1.305-.208H27.5z"/>
            <path fill="#4BACEB" d="M1.282 6h12.436c.446 0 .607.046.77.134.163.087.291.215.378.378.088.163.134.324.134.77V8H0v-.718c0-.446.046-.607.134-.77a.909.909 0 0 1 .378-.378C.675 6.046.836 6 1.282 6zM28.282 6h12.436c.446 0 .607.046.77.134.163.087.291.215.378.378.088.163.134.324.134.77V8H27v-.718c0-.446.046-.607.134-.77a.909.909 0 0 1 .378-.378c.163-.088.324-.134.77-.134z"/>
            <path stroke="#4BACEB" stroke-linecap="round" stroke-linejoin="round" d="M21 6v5M14.5 19v2.5c0 5.5 6.5 5.5 6.5 0V14"/>
            <g stroke="#4BACEB" stroke-linecap="round" stroke-linejoin="round">
                <path d="M11.5 22l3-4M17.5 22l-3-4"/>
            </g>
        </g>
    </g>
</svg>
