<svg xmlns="http://www.w3.org/2000/svg" width="48" height="48" viewBox="0 0 48 48">
    <g fill="none" fill-rule="evenodd" stroke="#4BACEB">
        <g transform="translate(2 3)">
            <circle cx="22" cy="3" r="2.5" fill="#FFF"/>
            <path d="M22 21V5M22.037 21.047l12.435-10.07M22.004 20.98l15.59 3.6M21.964 21.017l7.014 14.381M22.036 21.017l-7.014 14.381M21.996 20.98l-15.59 3.6M21.963 21.047L9.528 10.977"/>
            <circle cx="36.073" cy="9.777" r="2.5" fill="#FFF" transform="rotate(51 36.073 9.777)"/>
            <circle cx="39.549" cy="25.005" r="2.5" fill="#FFF" transform="rotate(103 39.549 25.005)"/>
            <circle cx="29.81" cy="37.217" r="2.5" fill="#FFF" transform="rotate(154 29.81 37.217)"/>
            <circle cx="14.19" cy="37.217" r="2.5" fill="#FFF" transform="rotate(-154 14.19 37.217)"/>
            <circle cx="4.451" cy="25.005" r="2.5" fill="#FFF" transform="rotate(-103 4.451 25.005)"/>
            <circle cx="7.927" cy="9.777" r="2.5" fill="#FFF" transform="rotate(-51 7.927 9.777)"/>
        </g>
        <circle cx="24" cy="24" r="5.5" fill="#EDF6FD"/>
        <path fill="#4BACEB" d="M25.035 23.592l.297.05.004.001c-.052-.005-.05-.005-.035-.005-.173 0-.285.1-.312.151a1.54 1.54 0 0 1 .046-.197zm-.046.197a.057.057 0 0 0-.006.015l.005-.022zm.377-.136a.43.43 0 0 0 .111.016l-.11-.016zm-.58.227l-.186.052.404-.956c.08-.188.11-.393.088-.637a.857.857 0 0 0-.28-.62c-.173-.157-.403-.236-.72-.216a.838.838 0 0 0-.634.216.888.888 0 0 0-.28.66c-.02.204.01.41.09.597l.37.88-.155-.033.02.278c.014.178.045.354.065.45.027.06.065.113.113.158l.15.142.005.207c.007.253-.02.506-.078.752l-.044.185-.156.108a1.621 1.621 0 0 1-.501.242 2.06 2.06 0 0 1-.402.095l-.175.03a2.02 2.02 0 0 0-.285.064 1.024 1.024 0 0 0-.583.508h5.048a1.024 1.024 0 0 0-.583-.508h-.001a2.039 2.039 0 0 0-.287-.064l-.173-.03a1.911 1.911 0 0 1-.351-.079 1.667 1.667 0 0 1-.557-.262l-.15-.108-.044-.18a2.902 2.902 0 0 1-.078-.753l.005-.207.15-.142c.048-.045.086-.098.085-.078a3.03 3.03 0 0 0 .093-.534l.018-.217zm-1.505-.1l-.034-.006a.87.87 0 0 0-.044-.04.377.377 0 0 0-.23-.095c-.013 0 .002.001.03.003a.238.238 0 0 0-.069 0l.3-.05c.013.04.017.053 0-.001.018.057.034.121.047.19zm-.488-.111a.565.565 0 0 0 .08-.008l-.08.008zm.442-.078a22.702 22.702 0 0 0-.003-.011zm3.165 1.997z"/>
    </g>
</svg>
