<svg xmlns="http://www.w3.org/2000/svg" width="48" height="48" viewBox="0 0 48 48">
    <g fill="none" fill-rule="evenodd">
        <path stroke="#4BACEB" d="M11.74 41.375V25.721H6.477V19.5h5.263v-4.922c0-2.597.73-4.614 2.188-6.05 1.458-1.435 3.395-2.153 5.81-2.153 1.96 0 3.555.091 4.785.274v5.537h-3.28c-1.231 0-2.074.273-2.53.82-.365.456-.547 1.185-.547 2.187V19.5h5.81l-.82 6.22h-4.99v15.655H11.74z"/>
        <path fill="#4BACEB" stroke="#4BACEB" d="M29.856 30.589l.018.003-.018-.003zm0 0a.207.207 0 0 1 .045-.004c-.02 0 .003-.025.07-.365.042-.224.096-.428.169-.664l.123-.387a2.79 2.79 0 0 0 .079-.3 1.045 1.045 0 0 0 .013-.354l-.79.22.406-.956a5.053 5.053 0 0 0 .37-2.495 3.85 3.85 0 0 0-1.267-2.79c-.79-.714-1.84-1.069-2.985-.98a3.84 3.84 0 0 0-2.897.98 3.872 3.872 0 0 0-1.263 2.83 5.03 5.03 0 0 0 .373 2.456l.372.88-.756-.158-.001.02c-.016.114-.011.223.013.348.015.083.04.174.078.3.01.033.095.303.122.394.069.229.12.434.163.66.034.187.07.304.09.364l.028.002.527-.089.042.546c.048.644.16 1.282.305 1.828.147.318.354.605.61.846l.15.143.006.208a8.186 8.186 0 0 1-.224 2.13l-.044.185-.156.108a4.418 4.418 0 0 1-1.379.648c-.246.093-.547.158-1.087.25-.03.005-.448.075-.571.097-.496.086-.828.16-1.089.249a4.42 4.42 0 0 0-2.983 3.786h19.236a4.42 4.42 0 0 0-2.983-3.786h-.002c-.26-.09-.596-.164-1.097-.25-.122-.022-.537-.091-.563-.096-.542-.092-.844-.157-1.043-.234a4.282 4.282 0 0 1-1.427-.668l-.15-.108-.044-.181a8.177 8.177 0 0 1-.224-2.13l.006-.208.15-.143c.256-.24.463-.528.581-.766.169-.626.281-1.266.335-1.911l.045-.542.518.087zm.523-2.132h.002-.004.002zm.002 0c.009 0 .019.002.03.004l-.03-.004zm.03.004l.036.008h.024l-.06-.008zm.09.014h.01l-.008-.001H30.5zm-8.72-.002h-.004l-.026.002a.3.3 0 0 0 .03-.002zm.015-.003a.28.28 0 0 0 .019-.002l-.019.002zm.513 2.118l-.004-.001h.02zm.124.003h.02a.167.167 0 0 0-.019-.001z"/>
        <path fill="#EDF6FD" d="M18.19 36.876a4.88 4.88 0 0 1 1.79-.43s.28-.45-.63-.62a6.47 6.47 0 0 1-1.4-.48 3.32 3.32 0 0 1 0-1.15 5 5 0 0 0 2.43-.67c-1.13-1.69-.52-3.66-.76-5.51a3.12 3.12 0 0 0-3.43-3h-.12a3.08 3.08 0 0 0-3.33 3c-.23 1.84.44 4-.72 5.52a4.69 4.69 0 0 0 2.44.6 3.75 3.75 0 0 1-.07 1.21 1.85 1.85 0 0 1-.87.4c-.638.15-1.266.341-1.88.57a3.17 3.17 0 0 0-1.64 2.71h5.87a5.18 5.18 0 0 1 2.32-2.15zM36.54 39.026h5.8a3.2 3.2 0 0 0-1.64-2.72 16.535 16.535 0 0 0-1.88-.56 2.001 2.001 0 0 1-.87-.4 3.762 3.762 0 0 1-.07-1.21 4.591 4.591 0 0 0 2.44-.6c-1.15-1.48-.49-3.67-.72-5.52a3.08 3.08 0 0 0-3.33-3h-.07a3.13 3.13 0 0 0-3.44 3c-.23 1.84.37 3.82-.76 5.51a5 5 0 0 0 2.43.67s.09 1 0 1.14c-.445.22-.915.384-1.4.49-.91.16-.63.61-.63.61.616.023 1.223.159 1.79.4a5.15 5.15 0 0 1 2.35 2.19z"/>
    </g>
</svg>
