<svg xmlns="http://www.w3.org/2000/svg" width="48" height="48" viewBox="0 0 48 48">
    <g fill="none" fill-rule="evenodd">
        <path fill="#EDF6FD" d="M43.144 33.303c-.456-.16-1.195-.212-1.523-.338a2.077 2.077 0 0 1-.7-.337 4.511 4.511 0 0 1-.118-1.144c.168-.163.304-.357.4-.572.099-.375.164-.757.195-1.144a.18.18 0 0 0 .062 0c.088 0 .239-.057.31-.44.09-.475.262-.721.218-1.064-.034-.235-.128-.275-.19-.275a.08.08 0 0 0-.044 0c.201-.486.28-1.018.228-1.544a2.52 2.52 0 0 0-.796-1.802 2.377 2.377 0 0 0-1.823-.634 2.371 2.371 0 0 0-1.82.634 2.514 2.514 0 0 0-.793 1.802c-.05.526.028 1.057.228 1.544a.119.119 0 0 0-.05 0c-.061 0-.156.04-.184.275-.044.343.123.572.212 1.064.089.491.228.44.317.44a.18.18 0 0 0 .06 0c.03.387.094.77.195 1.144.097.215.233.41.4.572.01.385-.029.77-.116 1.144a2.225 2.225 0 0 1-.706.337c-.323.126-1.062.177-1.518.338-1.13.393-1.882 1.495-1.857 2.722H45c.025-1.227-.727-2.329-1.857-2.722z"/>
        <path fill="#EDF6FD" stroke="#4BACEB" d="M30.807 26.149a.31.31 0 0 1 .037-.003c-.058 0-.064.006-.014-.254.037-.195.083-.372.146-.577l.105-.332c.032-.104.052-.181.066-.25a.914.914 0 0 0 .017-.197l-.733.205.404-.956a4.296 4.296 0 0 0 .31-2.111 3.24 3.24 0 0 0-1.056-2.34c-.658-.6-1.532-.897-2.499-.823a3.183 3.183 0 0 0-2.412.822 3.263 3.263 0 0 0-1.053 2.381c-.07.706.038 1.419.313 2.072l.37.88-.7-.148a.877.877 0 0 0 .017.217c.013.068.033.143.065.25.008.027.081.259.104.337.06.199.104.377.14.573.022.117.043.199.057.25l.488-.083.042.547c.04.547.135 1.09.253 1.543.122.264.293.503.504.703l.15.143.005.207c.017.62-.048 1.24-.192 1.844l-.044.184-.155.109a3.81 3.81 0 0 1-1.191.564c-.216.082-.476.139-.94.218l-.487.083c-.419.073-.699.136-.916.21a3.713 3.713 0 0 0-2.485 3.108h16.226a3.713 3.713 0 0 0-2.485-3.108h-.001c-.218-.075-.5-.137-.923-.211l-.48-.082c-.466-.08-.727-.136-.895-.202a3.714 3.714 0 0 1-1.24-.584l-.15-.109-.044-.18a7.12 7.12 0 0 1-.192-1.844l.005-.207.15-.143c.21-.2.382-.439.475-.624a9.23 9.23 0 0 0 .283-1.626l.045-.542.51.086zm.462-1.682l.032.007.028.001-.06-.008zm-7.348.012H23.9h.021zm.017-.003h.016l.015-.003-.03.003zm.518 1.674l.028.002a.146.146 0 0 0-.045.001l.017-.003zm.028.002a194.45 194.45 0 0 1 .002-.002z"/>
        <path fill="#4BACEB" stroke="#4BACEB" d="M18.905 23.03h.01-.01zm0 0c-.003-.002.005-.003.053-.006.017 0 .07-.056.152-.475.05-.253.11-.484.193-.752.027-.085.122-.379.141-.442a3.24 3.24 0 0 0 .093-.351c.029-.151.034-.283.017-.413a.332.332 0 0 1-.005-.097l-.85.236.408-.956a5.81 5.81 0 0 0 .43-2.88 4.461 4.461 0 0 0-1.477-3.238c-.923-.83-2.15-1.243-3.471-1.14a4.496 4.496 0 0 0-3.384 1.14 4.481 4.481 0 0 0-1.473 3.279 5.792 5.792 0 0 0 .434 2.84l.373.88-.82-.171a.246.246 0 0 1 0 .101c-.019.14-.013.27.015.421.02.098.047.204.092.35.012.038.11.347.14.45.079.259.137.492.185.746.048.255.097.406.129.474l.086.003.531-.088.042.545c.056.74.185 1.474.356 2.112.173.372.416.708.716.99l.152.142.005.209a9.243 9.243 0 0 1-.255 2.416l-.044.185-.157.108c-.49.34-1.036.593-1.566.731-.277.105-.62.179-1.234.283l-.656.11c-.573.1-.958.185-1.26.288a5.127 5.127 0 0 0-3.482 4.465h22.244a5.127 5.127 0 0 0-3.481-4.465h-.001c-.305-.104-.692-.19-1.272-.29l-.646-.108c-.617-.104-.961-.178-1.192-.266a4.851 4.851 0 0 1-1.612-.752l-.152-.108-.043-.181a9.234 9.234 0 0 1-.255-2.416l.005-.209.152-.142c.3-.282.543-.618.687-.91.194-.719.324-1.454.386-2.196l.045-.54.526.087zm.733-2.56h.02l-.015-.002-.005.001zm-.025-.006l-.088-.012a.328.328 0 0 0 .088.012zm-9.972.004l-.004-.001-.035.003a.32.32 0 0 0 .04-.002zm.013-.003a.246.246 0 0 0 .05-.005l-.05.005zm.728 2.565z"/>
    </g>
</svg>
