<svg xmlns="http://www.w3.org/2000/svg" width="48" height="48" viewBox="0 0 48 48">
    <g fill="none" fill-rule="evenodd">
        <path fill="#EDF6FD" stroke="#4BACEB" d="M5.564 12.5c-.737 0-1.017.054-1.305.208a1.317 1.317 0 0 0-.551.551c-.154.288-.208.568-.208 1.305v18.872c0 .737.054 1.017.208 1.305.128.239.312.423.551.551.288.154.568.208 1.305.208h36.872c.737 0 1.017-.054 1.305-.208.239-.128.423-.312.551-.551.154-.288.208-.568.208-1.305V14.564c0-.737-.054-1.017-.208-1.305a1.317 1.317 0 0 0-.551-.551c-.288-.154-.568-.208-1.305-.208H5.564z"/>
        <path fill="#FFF" stroke="#4BACEB" d="M13.282 21.5c-.331 0-.432.02-.535.074a.409.409 0 0 0-.173.173c-.055.103-.074.204-.074.535v5.436c0 .331.02.432.074.535.041.075.098.132.173.173.103.055.204.074.535.074h21.436c.331 0 .432-.02.535-.074a.409.409 0 0 0 .173-.173c.055-.103.074-.204.074-.535v-5.436c0-.331-.02-.432-.074-.535a.409.409 0 0 0-.173-.173c-.103-.055-.204-.074-.535-.074H13.282zM13.255 17.5c-.304 0-.406.02-.508.074a.409.409 0 0 0-.173.173c-.054.102-.074.204-.074.508v.49c0 .304.02.406.074.508.041.075.098.132.173.173.102.054.204.074.508.074h21.49c.304 0 .406-.02.508-.074a.409.409 0 0 0 .173-.173c.054-.102.074-.204.074-.508v-.49c0-.304-.02-.406-.074-.508a.409.409 0 0 0-.173-.173c-.102-.054-.204-.074-.508-.074h-21.49zM18.255 30.5c-.304 0-.406.02-.508.074a.409.409 0 0 0-.173.173c-.054.102-.074.204-.074.508v.49c0 .304.02.406.074.508.041.075.098.132.173.173.102.054.204.074.508.074h6.49c.304 0 .406-.02.508-.074a.409.409 0 0 0 .173-.173c.054-.102.074-.204.074-.508v-.49c0-.304-.02-.406-.074-.508a.409.409 0 0 0-.173-.173c-.102-.054-.204-.074-.508-.074h-6.49zM28.255 30.5c-.304 0-.406.02-.508.074a.409.409 0 0 0-.173.173c-.054.102-.074.204-.074.508v.49c0 .304.02.406.074.508.041.075.098.132.173.173.102.054.204.074.508.074h6.49c.304 0 .406-.02.508-.074a.409.409 0 0 0 .173-.173c.054-.102.074-.204.074-.508v-.49c0-.304-.02-.406-.074-.508a.409.409 0 0 0-.173-.173c-.102-.054-.204-.074-.508-.074h-6.49z"/>
        <path fill="#4BACEB" d="M4.282 12h39.436c.446 0 .607.046.77.134.163.087.291.215.378.378.088.163.134.324.134.77V14H3v-.718c0-.446.046-.607.134-.77a.909.909 0 0 1 .378-.378c.163-.088.324-.134.77-.134z"/>
        <path d="M0 0h48v48H0z"/>
    </g>
</svg>
