<svg xmlns="http://www.w3.org/2000/svg" width="48" height="48" viewBox="0 0 48 48">
    <g fill="none" fill-rule="evenodd">
        <path fill="#EDF6FD" stroke="#4BACEB" d="M19.282 12.5c-.331 0-.432.02-.535.074a.409.409 0 0 0-.173.173c-.055.103-.074.204-.074.535v7.936c0 .331.02.432.074.535.041.075.098.132.173.173.103.055.204.074.535.074h9.436c.331 0 .432-.02.535-.074a.409.409 0 0 0 .173-.173c.055-.103.074-.204.074-.535v-7.936c0-.331-.02-.432-.074-.535a.409.409 0 0 0-.173-.173c-.103-.055-.204-.074-.535-.074h-9.436z"/>
        <path fill="#FFF" stroke="#4BACEB" d="M19.282 26c-.331 0-.432.02-.535.074a.409.409 0 0 0-.173.173c-.055.103-.074.204-.074.535v7.936c0 .331.02.432.074.535.041.075.098.132.173.173.103.055.204.074.535.074h9.436c.331 0 .432-.02.535-.074a.409.409 0 0 0 .173-.173c.055-.103.074-.204.074-.535v-7.936c0-.331-.02-.432-.074-.535a.409.409 0 0 0-.173-.173c-.103-.055-.204-.074-.535-.074h-9.436z"/>
        <path fill="#EDF6FD" stroke="#4BACEB" d="M34.282 26c-.331 0-.432.02-.535.074a.409.409 0 0 0-.173.173c-.055.103-.074.204-.074.535v7.936c0 .331.02.432.074.535.041.075.098.132.173.173.103.055.204.074.535.074h9.436c.331 0 .432-.02.535-.074a.409.409 0 0 0 .173-.173c.055-.103.074-.204.074-.535v-7.936c0-.331-.02-.432-.074-.535a.409.409 0 0 0-.173-.173c-.103-.055-.204-.074-.535-.074h-9.436z"/>
        <path fill="#FFF" stroke="#4BACEB" d="M4.282 12.5c-.331 0-.432.02-.535.074a.409.409 0 0 0-.173.173c-.055.103-.074.204-.074.535v7.936c0 .331.02.432.074.535.041.075.098.132.173.173.103.055.204.074.535.074h9.436c.331 0 .432-.02.535-.074a.409.409 0 0 0 .173-.173c.055-.103.074-.204.074-.535v-7.936c0-.331-.02-.432-.074-.535a.409.409 0 0 0-.173-.173c-.103-.055-.204-.074-.535-.074H4.282z"/>
        <path fill="#EDF6FD" stroke="#4BACEB" d="M4.282 26c-.331 0-.432.02-.535.074a.409.409 0 0 0-.173.173c-.055.103-.074.204-.074.535v7.936c0 .331.02.432.074.535.041.075.098.132.173.173.103.055.204.074.535.074h9.436c.331 0 .432-.02.535-.074a.409.409 0 0 0 .173-.173c.055-.103.074-.204.074-.535v-7.936c0-.331-.02-.432-.074-.535a.409.409 0 0 0-.173-.173c-.103-.055-.204-.074-.535-.074H4.282z"/>
        <path d="M33 11h11v11H33z"/>
        <path fill="#4BACEB" d="M38.189 20.1l-2.128.945.24-2.315a2 2 0 0 0-.5-1.543l-1.556-1.732 2.276-.487a2 2 0 0 0 1.313-.953L39 12l1.166 2.015a2 2 0 0 0 1.313.953l2.276.487-1.555 1.732a2 2 0 0 0-.502 1.543l.24 2.315-2.127-.944a2 2 0 0 0-1.622 0z"/>
    </g>
</svg>
