<svg xmlns="http://www.w3.org/2000/svg" width="5" height="5" fill="none" viewBox="0 0 5 5">
    <path fill="#000" fill-opacity="0" d="M0 0h4.993v5H0z"/>
    <path fill="#888" d="M4.382 2.75l.56.4c.052.05.052.1.052.15l-.51.85c-.102.1-.153.1-.204.1L3.67 4c-.153.1-.306.15-.459.25l-.102.65c0 .05-.05.1-.102.1H1.987c-.05 0-.102-.05-.153-.1l-.102-.65c-.152-.1-.254-.15-.407-.25l-.663.25c-.05 0-.101 0-.152-.05L0 3.3c0-.05 0-.1.051-.15l.56-.4V2.5v-.25l-.56-.4C0 1.8 0 1.75 0 1.7L.51.85C.56.8.61.75.662.8l.663.2c.153-.1.306-.2.407-.25L1.835.1c.051-.05.051-.1.153-.1h1.02c.05 0 .101.05.101.1l.102.65c.153.05.306.15.459.25L4.28.75c.051 0 .102 0 .153.05l.51.85c.05.05 0 .1-.051.15l-.51.45v.5zm-2.548.35c.204.2.408.3.663.3.255 0 .458-.1.611-.25a.94.94 0 0 0 .255-.65.82.82 0 0 0-.255-.6c-.153-.15-.356-.3-.611-.3s-.459.1-.663.3c-.203.2-.254.35-.254.6s.102.45.254.6z"/>
</svg>
