<svg xmlns="http://www.w3.org/2000/svg" width="7" height="7" fill="none" viewBox="0 0 7 7">
    <path fill="none" d="M0 0h6.991v7H0z"/>
    <path fill="none" d="M0 0h6.991v7H0z"/>
    <path fill="#494957" d="M6.781 3.36c.14.14.21.28.21.49 0 .21-.07.35-.21.49L4.335 6.79c-.14.14-.28.21-.49.21-.21 0-.35-.07-.49-.21L.21 3.64A.636.636 0 0 1 0 3.15V.7C0 .49.07.35.21.21.35.07.49 0 .7 0h2.446c.21 0 .35.07.49.21L6.78 3.36zM.84 1.61c.07.07.21.14.35.14.14 0 .28-.07.349-.14.07-.07.21-.21.21-.42s-.07-.21-.14-.35C1.538.7 1.398.7 1.188.7s-.21.07-.35.14C.7.91.7 1.05.7 1.19c0 .14.07.28.14.42z"/>
</svg>
