<svg xmlns="http://www.w3.org/2000/svg" width="61" height="45" fill="none" viewBox="0 0 61 45">
    <path fill="#000" fill-opacity="0" d="M-11.673-20.224h84.844V64.62h-84.844z"/>
    <path fill="#000" fill-opacity="0" d="M.493.493H61v44.198H.493z"/>
    <path fill="#000" fill-opacity=".01" d="M.493.493H61v44.198H.493z"/>
    <path fill="#EDF6FD" d="M6.12 44.691c-2.58 0-4.69-2.116-4.69-4.702V6.606c0-2.586 2.11-4.702 4.69-4.702h50.188c2.58 0 4.69 2.116 4.69 4.702v33.383c0 2.586-2.11 4.702-4.69 4.702"/>
    <path stroke="#4BACEB" stroke-linecap="round" stroke-linejoin="round" d="M5.184 43.28c-2.58 0-4.69-2.115-4.69-4.701V5.195c0-2.586 2.11-4.702 4.69-4.702h50.188c2.58 0 4.69 2.116 4.69 4.702V38.58c0 2.586-2.11 4.702-4.69 4.702M44.77 43.282c-13.086.235-26.688.235-39.587 0M55.373 43.282h-2.908M30.042 21.652L3.307 4.255M30.044 21.652L56.779 4.255"/>
</svg>
