<svg xmlns="http://www.w3.org/2000/svg" width="65" height="46" fill="none" viewBox="0 0 65 46">
    <path fill="none" d="M-11.324-20.329H73.36v84.685h-84.685z"/>
    <path fill="none" d="M.492.492h63.999v45.015H.492z"/>
    <path fill="#000" fill-opacity=".01" d="M.492.492H64.49v45.015H.492z"/>
    <path fill="#EDF6FD" d="M6.443 38.288c-2.717 0-4.966-1.82-4.966-4.013V5.717c0-2.24 2.202-4.013 4.966-4.013h53.083c2.717 0 4.966 1.82 4.966 4.013v28.558c0 2.24-2.202 4.013-4.967 4.013"/>
    <path stroke="#4BACEB" stroke-linecap="round" stroke-linejoin="round" d="M58.54 37.076c2.718 0 4.967-1.82 4.967-4.013V4.505c0-2.24-2.202-4.013-4.966-4.013H5.459C2.694.492.492 2.312.492 4.505v28.558c0 2.24 2.202 4.013 4.967 4.013 0 0 1.499 9.38 3.467 8.353 1.967-.98.983-4.433 2.998-4.946M58.728 37.03c-13.821.234-28.204.234-41.838 0M52.778 7.912c-13.822.234-28.205.234-41.838 0M52.778 13.324c-13.822.234-28.205.234-41.838 0M52.778 18.786c-13.822.234-28.205.234-41.838 0"/>
</svg>
