<svg xmlns="http://www.w3.org/2000/svg" xmlns:xlink="http://www.w3.org/1999/xlink" width="30" height="30" viewBox="0 0 30 30">
    <defs>
        <path id="a" d="M5.814 15.815c-.025.655-.358 1.397-.97 2.01C3.654 19.014.84 19.797.725 19.826L0 20l.203-.696c.029-.116.9-3.017 2.001-4.119.61-.609 1.393-.986 2.089-.986.053 0 .105.002.157.006a3.507 3.507 0 0 1-.287-1.617 3.632 3.632 0 0 1 .9-2.262L2.248 7.28l.29-.29C4.134 5.54 6.25 4.786 8.398 4.96 12.517.84 15.852 0 19.855 0c.406 0 .812 0 1.276.029l.406.029-.029.406c-.203 4.757-1.218 8.296-5.946 12.298 0 2.147-.928 4.206-2.494 5.657l-.29.29-2.785-3.017a3.697 3.697 0 0 1-2.175.725 3.67 3.67 0 0 1-2.004-.602zm9.371-7.577a2.55 2.55 0 0 1-1.856-.813c-.928-1.015-.87-2.61.145-3.538a2.488 2.488 0 0 1 1.711-.667c.696 0 1.363.29 1.856.812.929 1.015.87 2.61-.145 3.538a2.596 2.596 0 0 1-1.71.668zm0-4.177c-.435 0-.841.145-1.131.435-.32.29-.522.725-.551 1.16-.03.435.145.87.435 1.218.319.348.754.551 1.247.551.435 0 .841-.145 1.131-.435a1.69 1.69 0 0 0 .087-2.378 1.553 1.553 0 0 0-1.218-.551zm-5.134 10.47l2.756 2.988a6.992 6.992 0 0 0 1.943-4.96v-.203l.145-.116c4.496-3.77 5.54-6.961 5.772-11.428h-.812c-3.829 0-7.02.812-11.022 4.873l-.116.145-.203-.029c-.232-.029-.464-.029-.696-.029a6.942 6.942 0 0 0-4.41 1.566l2.756 2.988-.29.29a2.874 2.874 0 0 0-.174 4.032c.551.58 1.306.928 2.089.928a2.87 2.87 0 0 0 1.943-.754l.32-.29zm-5.787.48c-.464 0-1.044.29-1.508.725-.61.61-1.19 2.03-1.538 3.017.87-.29 2.32-.87 3.017-1.538.696-.696.928-1.624.55-2a.796.796 0 0 0-.521-.204z"/>
    </defs>
    <g fill="none" fill-rule="evenodd">
        <path d="M0 0h30v30H0z"/>
        <g transform="translate(2 5)">
            <mask id="b" fill="#fff">
                <use xlink:href="#a"/>
            </mask>
            <use fill="#4BACEB" fill-rule="nonzero" xlink:href="#a"/>
            <g fill="#4BACEB" mask="url(#b)">
                <path d="M-14-19h56v57h-56z"/>
            </g>
        </g>
    </g>
</svg>
