<?xml version="1.0" encoding="UTF-8"?>
<svg width="44px" height="44px" viewBox="0 0 44 44" version="1.1" xmlns="http://www.w3.org/2000/svg" xmlns:xlink="http://www.w3.org/1999/xlink">
    <!-- Generator: Sketch 52.5 (67469) - http://www.bohemiancoding.com/sketch -->
    <title>ProdIcons-Whatsapp</title>
    <desc>Created with Sketch.</desc>
    <g id="Page-1" stroke="none" stroke-width="1" fill="none" fill-rule="evenodd">
        <g id="ProdIcons-Whatsapp" transform="translate(-3.000000, -2.000000)">
            <g>
                <rect id="Rectangle" x="0" y="0" width="48" height="48"></rect>
                <path d="M16,38 C30.5,47.5 43,33.1649831 43,23.5 C43,13.8350169 35.1649831,6 25.5,6 C15.8350169,6 1.5,16.5 11,33.5 C8,45.5 6.5,39 16,38 Z M4,45 C6.5,37 7.5,35.5 7.5,33.5 C-0.5,14.5 14.1781626,3 25.5,3 C36.8218374,3 46,12.1781626 46,23.5 C45,39 32,48 16.0511498,41.6145027 C11.2713458,42.4717053 6.93944662,43.3966655 4,45 Z" id="Oval" fill="#EDF6FD" fill-rule="nonzero"></path>
                <path d="M15.5,16 L18,14 L20,14 L22,19 L20.5,22 L23,25.5 L28,28.5 L31,25.5 L36,28 C36.3333333,30.6666667 34.6666667,32.3333333 31,33 C27.3333333,33 22.8333333,30.3333333 17.5,25 L15,20 L15.5,16 Z" id="Path-5" fill="#EDF6FD" fill-rule="nonzero"></path>
                <path d="M4.79101449,44.2240008 L15.4678803,40.8312009 L15.6556886,40.93427 C18.6102149,42.5557133 21.9322345,43.4182667 25.3817332,43.4182667 C36.4939455,43.4182667 45.5,34.4816282 45.5,23.4591333 C45.5,12.4368701 36.4937121,3.5 25.3822,3.5 C14.2694991,3.5 5.26299999,12.4366606 5.26299999,23.4591333 C5.26299999,27.1417264 6.27053671,30.6784643 8.14828923,33.7630768 L8.26968376,33.9624934 L4.79101449,44.2240008 Z M7.1732651,34.0820204 C5.2785012,30.8896405 4.26299999,27.2468426 4.26299999,23.4591333 C4.26299999,11.8826257 13.7189494,2.5 25.3822,2.5 C37.0442722,2.5 46.5,11.8828459 46.5,23.4591333 C46.5,35.0356524 37.0445056,44.4182667 25.3817332,44.4182667 C21.836401,44.4182667 18.4172109,43.5491618 15.3638233,41.9135424 L3.20898551,45.7759992 L7.1732651,34.0820204 Z M7.5,23.5 C7.5,13.5741019 15.5738395,5.5 25.4999999,5.5 C35.4251425,5.5 43.5,13.5749721 43.5,23.5004747 C43.5,33.4258052 35.4253149,41.5 25.4999999,41.5 C22.0149282,41.5 18.6722724,40.5011377 15.797931,38.6539543 L8.35800698,41.0371522 L10.7777233,33.8434084 C8.65836666,30.8347943 7.5,27.250492 7.5,23.5 Z M15.947714,37.5559233 L16.1477312,37.688256 C18.9046621,39.5122603 22.1309248,40.5 25.4999999,40.5 C34.8730437,40.5 42.5,32.8735068 42.5,23.5004747 C42.5,14.1272537 34.8728546,6.5 25.4999999,6.5 C16.1261315,6.5 8.5,14.1263793 8.5,23.5 C8.5,27.1253921 9.64542888,30.5846285 11.7377523,33.466782 L11.8892617,33.6754846 L9.93631806,39.4815271 L15.947714,37.5559233 Z M31.238414,26.310889 C30.8203752,26.1635712 30.7952115,26.1663441 30.6540316,26.3724981 C30.3600458,26.8017827 29.5644213,27.7393296 28.9768601,28.390523 C28.5118598,28.9074182 27.9670801,28.9719135 27.2676772,28.6320083 C27.3795974,28.6864189 26.2495727,28.2003742 25.7247675,27.9281352 C24.8081404,27.4526414 23.907569,26.8534976 23.0033777,26.0707683 C21.7426993,24.9794153 20.746889,23.6771413 20.0281641,22.4768371 C19.6256114,21.8068659 19.7984495,21.3561102 20.3355239,20.8373932 C20.4477167,20.7287443 20.5561788,20.6057998 20.8121286,20.3035268 C20.9468415,20.144434 21.0091175,20.0716553 21.0836273,19.9873175 C21.1637668,19.8964624 21.2242498,19.8153959 21.2785012,19.7284071 C21.3108617,19.676519 21.3421716,19.620806 21.3793695,19.5495393 C21.4056806,19.4991303 21.5088269,19.2940374 21.5304586,19.251828 C21.5956138,19.1255577 21.5838386,19.0188457 21.4874804,18.8313233 C21.4119197,18.6848216 21.1548157,18.085567 20.5879433,16.7468602 L20.5827544,16.734606 C20.3824384,16.2613511 20.2738176,16.004723 20.1944271,15.8173753 C20.056573,15.4920637 19.9564773,15.2566505 19.8788966,15.075545 C19.6552577,14.5539644 19.5948792,14.5189379 19.326572,14.5358107 C19.2614761,14.5400628 19.2219622,14.5420114 19.1762884,14.5420114 C19.0370569,14.5420114 18.9369703,14.5370885 18.6657782,14.5200181 C18.4329785,14.5053644 18.3166074,14.5 18.1858869,14.5 C17.8546272,14.5 17.4770061,14.646685 17.1715343,14.9702578 C17.211323,14.9280296 16.9108437,15.2410807 16.8169867,15.3447047 C16.6619147,15.5159138 16.5239087,15.685 16.393701,15.8686444 C15.8275959,16.6670765 15.5,17.612701 15.5,18.811253 C15.5,19.8745117 15.8758228,21.0235262 16.5079621,22.1735375 C16.8507211,22.7970975 17.1666755,23.2559952 17.50348,23.6907286 C17.4026186,23.5610629 18.1159159,24.5653461 18.5398185,25.1055572 C19.2712415,26.0376648 20.0910726,26.9478035 21.0074405,27.7991005 C22.5888726,29.2682359 24.2962249,30.4095112 26.1134798,31.1045056 C29.6030205,32.4382575 30.6713959,32.6320227 31.5677593,32.4222949 C31.5999057,32.4147593 31.5999057,32.4147593 31.6332334,32.4069831 C31.8170849,32.3642651 31.9401008,32.3416706 32.0924365,32.3282362 C33.0411879,32.2444399 34.8436093,31.1128062 35.1543932,30.26976 C35.3365855,29.7729457 35.4474619,29.2753548 35.4858587,28.8436008 C35.5119391,28.5503397 35.4938789,28.3150909 35.500434,28.3198047 C35.4986083,28.3184856 35.4735005,28.2975696 35.4140419,28.2620356 C35.3516078,28.2247234 35.2693898,28.182633 35.1381862,28.1202219 C35.1626352,28.1318519 34.8265997,27.9738013 34.7170745,27.9205733 C33.5054626,27.3332904 31.5833762,26.4324818 31.238414,26.310889 Z M28.2339142,27.721172 C28.7905324,27.1042718 29.5694506,26.1864113 29.8289615,25.8074677 C30.2849812,25.1415776 30.7755956,25.0875137 31.5708154,25.367751 C31.97069,25.5086994 33.8784532,26.4027979 35.1534965,27.0208311 C35.2564301,27.0708628 35.5870899,27.226385 35.5677447,27.2171829 C35.7253844,27.2921691 35.8308565,27.3461642 35.9270381,27.4036448 C36.1139127,27.5153258 36.2514948,27.6338007 36.3514882,27.7946048 C36.6223003,28.2359068 36.5124683,29.4709153 36.0929608,30.6148543 C35.6340017,31.8598506 33.4849025,33.2091427 32.1803507,33.3243642 C32.0843585,33.3328297 32.0016284,33.3480249 31.859555,33.3810357 C31.8282792,33.3883332 31.8282792,33.3883332 31.7955827,33.3959974 C30.6564559,33.662526 29.4171009,33.4377512 25.7563626,32.0385652 C23.8075983,31.2932761 21.9957267,30.0821351 20.3268245,28.5317409 C19.3692491,27.6421625 18.5149916,26.6938052 17.7531119,25.7228843 C17.3092429,25.1572285 16.5904278,24.1450445 16.7131229,24.303371 C16.3473968,23.8313884 16.0041464,23.3329406 15.6316281,22.6552416 C14.9254797,21.3705901 14.5,20.069758 14.5,18.811253 C14.5,17.3960498 14.8966181,16.2511886 15.5779412,15.2902536 C15.7329091,15.0716875 15.8955951,14.8723632 16.0758139,14.6733904 C16.1811658,14.5570753 16.4923773,14.232843 16.4440492,14.2841345 C16.9485728,13.7497143 17.5914294,13.5 18.1858869,13.5 C18.3439938,13.5 18.4755155,13.5060628 18.7285995,13.5219933 C18.9771621,13.5376393 19.066051,13.5420114 19.1762884,13.5420114 C19.1929024,13.5420114 19.2062617,13.5413526 19.2638098,13.5377822 C19.9442739,13.4949904 20.4034639,13.7613741 20.7980413,14.6816249 C20.8763244,14.8643701 20.9768441,15.1007805 21.1151684,15.4272018 C21.1946568,15.6147804 21.3033816,15.8716542 21.5036033,16.3446864 L21.508788,16.3569306 C22.0400869,17.6116284 22.3196482,18.263226 22.3765786,18.3736074 C22.6072832,18.8225779 22.6548407,19.2535668 22.4197717,19.7091246 C22.4019376,19.7439275 22.2964018,19.9537716 22.2658766,20.0122543 C22.2177307,20.1044961 22.174386,20.1816238 22.1270104,20.2575877 C22.0434683,20.3915425 21.9499879,20.516836 21.8333129,20.6491115 C21.7647438,20.7267253 21.7054476,20.7960216 21.5775394,20.9470783 C21.2953246,21.2803699 21.176633,21.4149097 21.0307127,21.5562201 C20.788199,21.7904449 20.7859295,21.7963637 20.8857256,21.9624562 C21.5550801,23.0803086 22.4916667,24.3051325 23.657881,25.3147092 C24.5003392,26.0439981 25.3357726,26.5998061 26.1852416,27.0404621 C26.6704844,27.2921784 27.7840465,27.7711362 27.7045997,27.7325091 C28.0276342,27.8895185 28.089014,27.8822425 28.2339142,27.721172 Z" id="Shape" fill="#4BACEB" fill-rule="nonzero"></path>
            </g>
        </g>
    </g>
</svg>