<svg xmlns="http://www.w3.org/2000/svg" width="17" height="20" fill="none" viewBox="0 0 17 20">
    <path fill="#E2BA1A" d="M14.464 18.015L5.727 19.1l.107.898 8.737-1.086-.107-.897z"/>
    <path fill="#FFD943" d="M12.964 16.414l-6.156.767c-.713.088-1.22.749-1.134 1.478l.055.443 8.734-1.085-.054-.443a1.304 1.304 0 0 0-1.445-1.16zM9.641 8.952l-1.343.166.877 7.385 1.343-.166-.877-7.385z"/>
    <path fill="#FFD943" d="M6.694 18.952c-.226-1.92 1.11-3.666 2.986-3.897 1.878-.23 3.584 1.135 3.81 3.055l-6.796.842z"/>
    <path fill="#E2BA1A" d="M9.993 11.956l-1.343.167.204 1.72 1.343-.166-.204-1.721z"/>
    <path fill="#FFD943" d="M6.611 9.969l-1.524.187c-2.492.312-4.766-1.51-5.065-4.06-.2-1.677.976-3.205 2.61-3.41l3.071-.381.134 1.122-3.072.38C1.73 3.94.992 4.906 1.113 5.96c.232 1.933 1.95 3.311 3.84 3.074l1.524-.187.134 1.123z"/>
    <path fill="#FFD943" d="M5.085 10.156l1.524-.187-.134-1.122-1.524.187a3.3 3.3 0 0 1-1.658-.212c.171.442.354.879.543 1.31.402.068.823.08 1.25.024zM5.833 3.427L5.7 2.305l-3.072.38c-.347.044-.67.144-.963.293.128.362.25.718.372 1.08.22-.132.463-.219.725-.25l3.072-.38zM11.474 9.362l1.524-.187c2.493-.312 4.273-2.638 3.968-5.182-.201-1.678-1.694-2.875-3.334-2.669l-3.072.38.134 1.123 3.072-.38c1.036-.132 1.981.63 2.103 1.69.232 1.932-1.122 3.69-3.005 3.928l-1.524.187.134 1.11z"/>
    <path fill="#FFD943" d="M12.995 9.176l-1.523.187-.134-1.122 1.523-.187a3.478 3.478 0 0 0 1.56-.612c-.06.474-.14.942-.219 1.41-.378.156-.78.268-1.207.324zM10.694 2.823l-.134-1.122 3.072-.38a2.85 2.85 0 0 1 1.006.05c-.037.38-.073.76-.104 1.134-.244-.075-.5-.1-.768-.069l-3.072.387zM6.518 9.61l.274 2.306a4.927 4.927 0 0 1-2.828-3.928h-.012l-.81-6.785L5.481.91l.457 3.829.579 4.87z"/>
    <path fill="#FFD943" d="M10.912 4.178l.567 4.758-2.146 3.38L6.517 9.61l-.579-4.87 2.103-3.318 2.87 2.756z"/>
    <path fill="#FFD943" d="M5.481.914l4.974-.617.457 3.885-2.87-2.756-2.104 3.317L5.481.914z"/>
    <path fill="#FFD943" d="M10.914 4.178L10.45.293 12.797 0l.805 6.784h-.012a5.013 5.013 0 0 1-1.829 4.509l-.28-2.363-.567-4.752zM11.479 8.939l.28 2.363a4.78 4.78 0 0 1-2.401 1.017h-.025l2.146-3.38z"/>
    <path fill="#FFD943" d="M6.52 9.61l2.822 2.707a4.749 4.749 0 0 1-2.547-.399L6.52 9.611zM3.442 3.731L5.94 4.735l-2.018 3-.481-4.004zM13.096 2.524l-2.188 1.59 2.663 2.42-.475-4.01z"/>
    <path fill="#E2BA1A" d="M3.922 7.734L6.52 9.605l-.58-4.87-2.017 3zM13.571 6.537l-2.084 2.45-.58-4.87 2.664 2.42zM4.994.965l-1.513.188.12 1.002 1.512-.188-.12-1.002zM12.604.02l-1.513.187.12 1.003 1.512-.188-.119-1.003zM7.294.678L5.485.902l.12 1.003 1.808-.225L7.294.678zM10.424.295L8.614.52l.12 1.002 1.809-.224-.12-1.003zM11.992 17.229l-4.041.505a.09.09 0 0 1-.098-.075.09.09 0 0 1 .074-.1l4.04-.505a.09.09 0 0 1 .098.075c.006.05-.024.093-.073.1zM12.039 17.6l-4.041.505a.09.09 0 0 1-.098-.075.09.09 0 0 1 .073-.1l4.041-.505a.089.089 0 0 1 .098.075c.006.05-.024.093-.073.1zM12.078 17.967l-4.041.505a.09.09 0 0 1-.098-.075.09.09 0 0 1 .073-.1l4.041-.505a.09.09 0 0 1 .098.075c.006.05-.024.094-.073.1z"/>
</svg>
